<?xml version="1.0" encoding="UTF-8"?>
<svg xmlns="http://www.w3.org/2000/svg" xmlns:xlink="http://www.w3.org/1999/xlink" width="224.87999pt" height="374.999991pt" viewBox="0 0 224.87999 374.999991" version="1.2">
<defs>
<clipPath id="clip1">
  <path d="M 0 0.101562 L 224.761719 0.101562 L 224.761719 207 L 0 207 Z M 0 0.101562 "/>
</clipPath>
<clipPath id="clip2">
  <path d="M 0 123 L 224.761719 123 L 224.761719 374.898438 L 0 374.898438 Z M 0 123 "/>
</clipPath>
</defs>
<g id="surface1">
<g clip-path="url(#clip1)" clip-rule="nonzero">
<path style=" stroke:none;fill-rule:nonzero;fill:rgb(92.939758%,10.978699%,14.118958%);fill-opacity:1;" d="M 170.300781 206.550781 C 134.285156 209.175781 112.085938 178.082031 112.085938 178.082031 C 112.085938 178.082031 89.878906 209.175781 53.871094 206.550781 C 17.863281 203.925781 -7.96875 178.585938 -2.71875 134.414062 C 4.988281 69.640625 105.277344 -0.0351562 112.085938 -0.0351562 C 118.890625 -0.0351562 219.183594 69.640625 226.882812 134.414062 C 232.136719 178.585938 206.308594 203.925781 170.300781 206.550781 "/>
</g>
<g clip-path="url(#clip2)" clip-rule="nonzero">
<path style=" stroke:none;fill-rule:nonzero;fill:rgb(100%,100%,100%);fill-opacity:1;" d="M 0 123.601562 L 225.328125 123.601562 L 225.328125 374.296875 L 0 374.296875 Z M 0 123.601562 "/>
</g>
<path style=" stroke:none;fill-rule:nonzero;fill:rgb(6.269836%,5.879211%,5.099487%);fill-opacity:1;" d="M 158.546875 249.675781 C 165.019531 250.300781 170.882812 246.054688 173.363281 240.246094 C 175.738281 234.683594 175.847656 226.992188 171.097656 222.609375 C 166.523438 218.386719 159.496094 217.730469 153.628906 218.855469 C 146.492188 220.226562 141.019531 224.8125 136.050781 229.835938 C 131.667969 234.269531 126.574219 239.820312 125.683594 246.265625 C 125.199219 249.761719 127.417969 252.535156 129.386719 255.1875 C 131.390625 257.882812 133.558594 260.449219 135.90625 262.851562 C 144.074219 271.210938 157.273438 280.574219 168.964844 273.023438 C 174.378906 269.53125 176.753906 263.160156 174.257812 257.101562 C 173.023438 254.097656 170.882812 251.539062 168.285156 249.601562 C 165.402344 247.453125 161.59375 245.789062 157.996094 246.988281 C 156.378906 247.527344 157.070312 250.097656 158.707031 249.554688 C 161.492188 248.625 164.378906 250.035156 166.621094 251.664062 C 168.671875 253.152344 170.398438 255.140625 171.503906 257.421875 C 173.6875 261.917969 172.519531 266.90625 168.628906 270.011719 C 159.363281 277.394531 147.679688 270.21875 140.449219 263.550781 C 136.203125 259.640625 132.035156 255.113281 129.113281 250.105469 C 127.515625 247.371094 128.660156 244.472656 130.007812 241.863281 C 131.304688 239.339844 133.011719 237.070312 134.886719 234.949219 C 138.675781 230.671875 142.949219 226.238281 148.066406 223.574219 C 153.109375 220.949219 159.410156 220.171875 164.84375 222 C 167.507812 222.898438 169.980469 224.59375 171.222656 227.175781 C 172.621094 230.085938 172.515625 233.734375 171.734375 236.804688 C 170.195312 242.816406 165.019531 247.640625 158.546875 247.015625 C 156.839844 246.851562 156.851562 249.515625 158.546875 249.675781 "/>
<path style=" stroke:none;fill-rule:nonzero;fill:rgb(6.269836%,5.879211%,5.099487%);fill-opacity:1;" d="M 126.761719 246.640625 C 106.8125 247.605469 86.828125 247.882812 66.859375 247.457031 C 61.191406 247.335938 55.523438 247.152344 49.859375 246.921875 C 48.144531 246.851562 48.148438 249.511719 49.859375 249.582031 C 69.816406 250.402344 89.800781 250.535156 109.765625 249.960938 C 115.433594 249.796875 121.101562 249.574219 126.761719 249.300781 C 128.46875 249.214844 128.480469 246.554688 126.761719 246.640625 "/>
<path style=" stroke:none;fill-rule:nonzero;fill:rgb(6.269836%,5.879211%,5.099487%);fill-opacity:1;" d="M 48.089844 248.570312 C 48.421875 251.960938 48.542969 255.359375 48.457031 258.765625 C 48.445312 259.300781 48.878906 259.945312 49.4375 260.046875 C 50.785156 260.289062 52.929688 260.851562 54.199219 260.074219 C 55.398438 259.339844 55.933594 257.230469 56.28125 255.976562 C 56.382812 255.605469 56.472656 255.230469 56.546875 254.847656 C 56.589844 254.621094 56.628906 254.394531 56.660156 254.164062 C 56.785156 253.730469 56.589844 253.78125 56.085938 254.316406 C 56.085938 254.335938 58.261719 254.308594 58.503906 254.308594 C 58.847656 254.308594 58.796875 254.308594 58.355469 254.3125 C 58.367188 254.472656 58.378906 254.636719 58.390625 254.796875 C 58.320312 255.203125 58.449219 255.839844 58.460938 256.253906 C 58.488281 257.222656 58.480469 258.195312 58.449219 259.167969 C 58.421875 260.085938 59.320312 260.609375 60.136719 260.449219 C 61.007812 260.277344 61.820312 260.308594 62.679688 260.515625 C 63.386719 260.6875 64.113281 260.296875 64.320312 259.585938 C 65.300781 256.214844 65.925781 252.773438 66.230469 249.277344 C 66.378906 247.570312 63.714844 247.582031 63.566406 249.277344 C 63.285156 252.539062 62.667969 255.738281 61.75 258.878906 C 62.296875 258.570312 62.84375 258.261719 63.386719 257.953125 C 62.050781 257.628906 60.773438 257.617188 59.429688 257.882812 C 59.992188 258.3125 60.554688 258.738281 61.113281 259.167969 C 61.171875 257.292969 61.421875 254.921875 60.875 253.101562 C 60.316406 251.242188 58.027344 251.636719 56.523438 251.652344 C 55.855469 251.660156 55.160156 251.675781 54.644531 252.171875 C 54.011719 252.777344 54.0625 253.808594 53.882812 254.597656 C 53.664062 255.554688 53.300781 256.429688 52.960938 257.34375 C 52.761719 257.871094 52.878906 257.765625 52.332031 257.726562 C 51.59375 257.667969 50.875 257.613281 50.144531 257.480469 C 50.46875 257.910156 50.796875 258.335938 51.121094 258.765625 C 51.207031 255.359375 51.085938 251.960938 50.753906 248.570312 C 50.589844 246.882812 47.921875 246.863281 48.089844 248.570312 "/>
</g>
</svg>
